# xmcd
# 
# Track frame offsets:
#     150
#     17652
#     38582
#     58692
# 
# Disc length: 1113
# 
# Revision: 0
# Processed by: cddbd v1.5.2PL0 Copyright (c) Steve Scherf et al.
# Submitted via: BonkEnc v1.0.8
# 
DISCID=27045704
DTITLE=Cut 'N' Move  - Get Serious
DYEAR=1991
DGENRE=Club
TTITLE0=Get Serious (Cut The Crap Clean Version)
TTITLE1=Get Serious (Bassment Boys Serious Club Mix)
TTITLE2=Get Serious (Bassment Boys Ground Level Mix)
TTITLE3=Get Serious (SoulPower Mix)
EXTD=
EXTT0=
EXTT1=
EXTT2=
EXTT3=
PLAYORDER=
